<svg width="59" height="44" viewBox="0 0 59 44" fill="none" xmlns="http://www.w3.org/2000/svg">
<path d="M53.0618 37.769H47.2703V14.1634L29.8958 24.2801L12.5212 14.1634V37.769H6.72974V5.39558H10.2046L29.8958 16.8612L49.5869 5.39558H53.0618M53.0618 0H6.72974C3.51545 0 0.938232 2.40103 0.938232 5.39558V37.769C0.938232 39.2 1.54841 40.5724 2.63452 41.5843C3.72064 42.5961 5.19374 43.1646 6.72974 43.1646H53.0618C54.5978 43.1646 56.0709 42.5961 57.157 41.5843C58.2431 40.5724 58.8533 39.2 58.8533 37.769V5.39558C58.8533 3.96458 58.2431 2.59219 57.157 1.58033C56.0709 0.568461 54.5978 0 53.0618 0Z" fill="white" style="mix-blend-mode:difference"/>
</svg>
