<svg width="73" height="66" viewBox="0 0 73 66" fill="none" xmlns="http://www.w3.org/2000/svg">
<g clip-path="url(#clip0_128_1277)">
<rect x="1" y="1" width="72" height="65" fill="white" style="mix-blend-mode:difference"/>
<path d="M13.8417 55.7762L66.0569 35.56C66.5967 35.3523 67.057 35.0059 67.3805 34.5638C67.704 34.1217 67.8765 33.6034 67.8765 33.0735C67.8765 32.5436 67.704 32.0253 67.3805 31.5832C67.057 31.1411 66.5967 30.7947 66.0569 30.587L13.8417 10.3708C13.3895 10.1927 12.8954 10.119 12.4039 10.1565C11.9124 10.1939 11.4389 10.3413 11.0262 10.5854C10.6135 10.8294 10.2746 11.1624 10.04 11.5543C9.80537 11.9462 9.68248 12.3847 9.68239 12.8303L9.65247 25.2897C9.65247 26.6411 10.7596 27.8032 12.2557 27.9654L54.5366 33.0735L12.2557 38.1546C10.7596 38.3438 9.65247 39.5059 9.65247 40.8573L9.68239 53.3167C9.68239 55.2357 11.8668 56.56 13.8417 55.7762Z" fill="black"/>
</g>
<defs>
<clipPath id="clip0_128_1277">
<rect width="71.8147" height="64.8649" fill="white" transform="translate(0.386108 0.880371)"/>
</clipPath>
</defs>
</svg>
