<svg width="58" height="55" viewBox="0 0 58 55" fill="none" xmlns="http://www.w3.org/2000/svg">
<path d="M49.4752 7.89017C46.807 5.37927 43.6289 3.38844 40.1262 2.03381C36.6235 0.679175 32.8664 -0.0121471 29.0739 0.000161514C13.1837 0.000161514 0.232825 12.0656 0.232825 26.8696C0.232825 31.6144 1.57156 36.2237 4.07443 40.2907L0 54.2271L15.2791 50.4854C19.499 52.6274 24.2428 53.7661 29.0739 53.7661C44.9642 53.7661 57.9151 41.7006 57.9151 26.8967C57.9151 19.7116 54.9174 12.9604 49.4752 7.89017ZM29.0739 49.2111C24.7667 49.2111 20.5467 48.1265 16.8507 46.093L15.9776 45.605L6.89742 47.8283L9.31297 39.5858L8.73091 38.7453C6.3379 35.1852 5.06725 31.0701 5.06393 26.8696C5.06393 14.5601 15.8321 4.52811 29.0448 4.52811C35.4475 4.52811 41.4718 6.85986 45.9828 11.0896C48.2164 13.1609 49.9865 15.6247 51.1905 18.3381C52.3945 21.0515 53.0084 23.9606 52.9966 26.8967C53.0549 39.2062 42.2867 49.2111 29.0739 49.2111ZM42.2285 32.5092C41.5009 32.1838 37.9504 30.557 37.3101 30.313C36.6407 30.0961 36.1751 29.9876 35.6803 30.6384C35.1856 31.3162 33.8177 32.8345 33.4103 33.2684C33.0028 33.7293 32.5663 33.7835 31.8387 33.431C31.1112 33.1057 28.7829 32.3736 26.0472 30.0961C23.8936 28.3066 22.4675 26.1104 22.031 25.4326C21.6236 24.7547 21.9728 24.4023 22.3511 24.0498C22.6713 23.7515 23.0787 23.2635 23.4279 22.8839C23.7772 22.5043 23.9227 22.2061 24.1555 21.7723C24.3884 21.3113 24.2719 20.9317 24.0973 20.6064C23.9227 20.281 22.4675 16.9732 21.8855 15.6175C21.3034 14.3161 20.6923 14.4787 20.2557 14.4516H18.8588C18.364 14.4516 17.6073 14.6143 16.938 15.2921C16.2977 15.97 14.4351 17.5968 14.4351 20.9046C14.4351 24.2125 17.0253 27.4119 17.3745 27.8457C17.7238 28.3066 22.4675 35.085 29.6851 37.9861C31.4022 38.6911 32.7409 39.0978 33.7886 39.396C35.5057 39.9112 37.0773 39.8298 38.3287 39.6671C39.7257 39.4773 42.6069 38.0403 43.1889 36.4677C43.8001 34.8952 43.8001 33.5666 43.5964 33.2684C43.3926 32.9701 42.9561 32.8345 42.2285 32.5092Z" fill="white" style="mix-blend-mode:difference"/>
</svg>
