<svg width="36" height="36" viewBox="0 0 126 126" fill="none" xmlns="http://www.w3.org/2000/svg">
<path d="M114.188 0H11.8125C5.31563 0 0 5.31563 0 11.8125V114.188C0 120.684 5.31563 126 11.8125 126H114.188C120.684 126 126 120.684 126 114.188V11.8125C126 5.31563 120.684 0 114.188 0ZM55.125 94.5C55.125 98.8313 51.5813 102.375 47.25 102.375H31.5C27.1687 102.375 23.625 98.8313 23.625 94.5V31.5C23.625 27.1687 27.1687 23.625 31.5 23.625H47.25C51.5813 23.625 55.125 27.1687 55.125 31.5V94.5ZM102.375 70.875C102.375 75.2063 98.8313 78.75 94.5 78.75H78.75C74.4187 78.75 70.875 75.2063 70.875 70.875V31.5C70.875 27.1687 74.4187 23.625 78.75 23.625H94.5C98.8313 23.625 102.375 27.1687 102.375 31.5V70.875Z" fill="#A3FF2F" style="mix-blend-mode:difference"/>
</svg>
