<svg width="36" height="27" viewBox="0 0 36 27" fill="none" xmlns="http://www.w3.org/2000/svg">
<g clip-path="url(#clip0_149_232)">
<path d="M27.5859 8.02763V6.28571H25.8952V8.02763H24.2709V9.83193H25.8952V11.5867H27.5859V9.83193H29.2102V8.02763H27.5859ZM6.28577 8.00583H11.6246V9.86675H6.28577V8.00583Z" fill="#A3FF2F" style="mix-blend-mode:difference"/>
<path d="M1.87719 19.7415L0.024282 26.2276H1.48233L1.81677 25.019H3.62423L3.94963 26.2276H5.53516L3.68239 19.7415H1.87719ZM2.18298 23.7143L2.73342 21.697L3.27764 23.7143H2.18298ZM9.01892 23.2685C8.9975 23.2438 8.97518 23.2201 8.952 23.1973C8.9976 23.1788 9.04207 23.1592 9.08555 23.1377C9.25735 23.0541 9.41317 22.9371 9.54507 22.7925C9.67742 22.6452 9.78057 22.4706 9.84832 22.2794C9.9189 22.0846 9.95476 21.8607 9.95476 21.6143C9.95476 21.2748 9.89758 20.9811 9.78521 20.7411C9.67344 20.5008 9.505 20.296 9.29661 20.147C9.09233 20.0002 8.84386 19.8941 8.55798 19.8318C8.28326 19.772 7.9738 19.7415 7.63852 19.7415H5.74706V26.2276H7.19763V23.6933H7.24069C7.39937 23.6933 7.53165 23.7307 7.64501 23.8079C7.75753 23.8843 7.84378 23.9971 7.90915 24.1533L8.78584 26.2276H10.4736L9.40842 23.9138C9.27938 23.6329 9.1519 23.422 9.01892 23.2685ZM8.38801 22.0242C8.34586 22.1102 8.2848 22.1838 8.21013 22.2388C8.12811 22.3006 8.02632 22.348 7.90717 22.3798C7.78138 22.4135 7.63781 22.4305 7.48026 22.4305H7.19763V21.0651H7.5164C7.84844 21.0651 8.09521 21.121 8.2498 21.2313C8.38448 21.3275 8.44998 21.4894 8.44998 21.7268C8.44998 21.8416 8.42966 21.9389 8.38801 22.0242ZM14.7235 20.5117C14.4793 20.2485 14.1712 20.0514 13.808 19.9262C13.4539 19.8037 13.0372 19.7415 12.5694 19.7415H10.651V26.2276H12.321C12.8598 26.2276 13.3312 26.1489 13.7219 25.9937C14.1186 25.8364 14.4499 25.6081 14.7064 25.3153C14.9625 25.0231 15.1534 24.6661 15.2734 24.2545C15.3911 23.8515 15.4507 23.3982 15.4507 22.9072C15.4507 22.3721 15.391 21.9026 15.2729 21.5119C15.1524 21.1116 14.9676 20.7752 14.7235 20.5117ZM13.5375 24.4536C13.2856 24.7536 12.9203 24.8994 12.4205 24.8994H12.1015V21.0696H12.4972C12.7768 21.0696 13.0116 21.112 13.1947 21.1957C13.3723 21.2767 13.5097 21.3912 13.6147 21.5453C13.722 21.7034 13.7998 21.9017 13.8458 22.1344C13.8942 22.3805 13.9189 22.6658 13.9189 22.9822C13.9189 23.6571 13.7906 24.1521 13.5375 24.4536ZM18.9449 23.8677C18.9449 24.0913 18.9257 24.2819 18.8874 24.4342C18.8518 24.5763 18.7995 24.6925 18.7314 24.7792C18.6671 24.862 18.5828 24.9242 18.4878 24.9592C18.3803 25.0004 18.243 25.0211 18.0792 25.0211C17.906 25.0211 17.7631 24.9974 17.6545 24.9503C17.5548 24.9084 17.4666 24.8402 17.398 24.752C17.3294 24.6634 17.2803 24.5523 17.2519 24.4212C17.2203 24.2764 17.2043 24.1061 17.2043 23.9145V19.7415H15.7539V23.9847C15.7539 24.3353 15.7944 24.6572 15.8741 24.9412C15.9569 25.2363 16.0936 25.4914 16.2804 25.6989C16.4671 25.9063 16.7116 26.0668 17.0071 26.1754C17.2943 26.2815 17.6413 26.3352 18.0384 26.3352C18.3935 26.3352 18.7193 26.2815 19.0064 26.1754C19.3001 26.0674 19.5532 25.9038 19.7589 25.6888C19.9647 25.4735 20.1244 25.2025 20.2335 24.8834C20.3408 24.57 20.3953 24.203 20.3953 23.7926V19.7415H18.9449V23.8677ZM21.137 21.0463H22.4387V24.9135H21.137V26.2276H25.2089V24.9135H23.9073V21.0463H25.2089V19.7415H21.137V21.0463ZM29.2454 23.4373L27.6238 19.7415H25.9821V26.2276H27.333V22.4615L28.9632 26.2276H30.5966V19.7415H29.2454V23.4373ZM35.2923 20.5089C34.8688 19.9313 34.2339 19.6385 33.4056 19.6385C33.0513 19.6385 32.7133 19.7059 32.401 19.8387C32.0844 19.9732 31.8046 20.1828 31.5692 20.4619C31.336 20.7387 31.1508 21.0946 31.0191 21.5196C30.8888 21.9391 30.8227 22.4422 30.8227 23.015C30.8227 24.0733 31.0326 24.8965 31.4466 25.4624C31.8701 26.0417 32.5049 26.3352 33.3332 26.3352C33.6877 26.3352 34.026 26.2679 34.3382 26.1351C34.655 26.0003 34.9347 25.7907 35.1698 25.5119C35.4027 25.2354 35.5879 24.8796 35.7201 24.4543C35.8501 24.035 35.9161 23.5319 35.9161 22.9587C35.9161 21.8974 35.7062 21.0731 35.2923 20.5089ZM34.3377 23.879C34.2962 24.1184 34.2314 24.3202 34.1451 24.479C34.0632 24.6302 33.9619 24.7411 33.8355 24.8175C33.7096 24.8937 33.5527 24.9323 33.3695 24.9323C33.007 24.9323 32.7543 24.7875 32.597 24.49C32.4242 24.1632 32.3365 23.6481 32.3365 22.9587C32.3365 22.635 32.3583 22.3442 32.4015 22.0949C32.443 21.856 32.5082 21.6545 32.5957 21.4956C32.679 21.3438 32.7807 21.2327 32.9064 21.1559C33.0305 21.0801 33.1863 21.0416 33.3695 21.0416C33.7349 21.0416 33.9883 21.1861 34.144 21.4831C34.3155 21.8101 34.4025 22.3256 34.4025 23.015C34.4025 23.3396 34.3807 23.6303 34.3377 23.879ZM33.8208 0.868994H34.0782V1.59462H34.2607V0.868994H34.5202V0.688837H33.8208V0.868994ZM35.1554 0.688837L34.9793 1.30622L34.7972 0.688837H34.559V1.59462H34.7307V1.016L34.901 1.59462H35.0577L35.2192 1.03098V1.59462H35.39V0.688837H35.1554ZM26.7565 18.2166C24.457 18.2166 22.491 17.3852 20.7608 15.6846C19.692 14.6344 18.8108 13.3477 18 12.0098C17.1894 13.3477 16.308 14.6344 15.2393 15.6846C13.3802 17.5117 11.2488 18.3356 8.72429 18.2029C3.9101 18.1805 0 14.1062 0 9.10143C0 4.08291 3.93156 0 8.7641 0C11.4086 0 13.635 0.938484 15.5701 2.86889C16.4996 3.79617 17.2842 4.87182 18 5.99727C18.7158 4.87182 19.5005 3.79617 20.4299 2.86889C22.365 0.938484 24.5914 0 27.2359 0C32.0686 0 36 4.08291 36 9.10143C36 14.1062 32.09 18.1805 27.2757 18.2029C27.1028 18.212 26.9296 18.2166 26.7565 18.2166ZM19.7606 8.98001C20.7197 10.6488 21.6506 12.2021 22.7845 13.3164C24.0644 14.5743 25.4135 15.0917 27.1574 14.9929L27.2359 14.9906C30.4167 14.9906 33.0046 12.3488 33.0046 9.10143C33.0046 5.85421 30.4167 3.21225 27.2359 3.21225C25.3581 3.21225 23.8438 3.85052 22.4701 5.22078C21.4442 6.24434 20.5972 7.55571 19.7606 8.98001ZM8.7641 3.21225C5.5833 3.21225 2.99544 5.85421 2.99544 9.10143C2.99544 12.3488 5.5833 14.9906 8.7641 14.9906L8.84273 14.9929C10.5868 15.0917 11.9356 14.5743 13.2155 13.3164C14.3494 12.2021 15.2804 10.6488 16.2394 8.98001C15.4028 7.55571 14.5558 6.24434 13.53 5.22078C12.1562 3.85052 10.6419 3.21225 8.7641 3.21225Z" fill="#A3FF2F" style="mix-blend-mode:difference"/>
</g>
<defs>
<clipPath id="clip0_149_232">
<rect width="36" height="26.2857" fill="white"/>
</clipPath>
</defs>
</svg>
