<svg width="36" height="36" viewBox="0 0 36 36" fill="none" xmlns="http://www.w3.org/2000/svg">
<path d="M13.2784 27.8381C13.2784 27.8381 11.9014 28.6402 14.256 28.9091C17.109 29.2376 18.5682 29.1915 21.7092 28.593C21.7092 28.593 22.5338 29.115 23.6892 29.5661C16.641 32.5845 7.74004 29.385 13.2773 27.8381H13.2784ZM12.4155 23.9006C12.4155 23.9006 10.8687 25.0425 13.2244 25.2821C16.2788 25.5982 18.6795 25.6286 22.8454 24.8265C22.8454 24.8265 23.4203 25.407 24.3293 25.7276C15.8097 28.2172 6.31691 25.9211 12.4167 23.9006H12.4155ZM19.6752 17.2159C21.4088 19.2139 19.2173 21.0127 19.2173 21.0127C19.2173 21.0127 23.6239 18.7324 21.6023 15.8861C19.7112 13.2255 18.2577 11.9081 26.1079 7.35412C26.1079 7.35412 13.7858 10.431 19.674 17.217L19.6752 17.2159ZM28.9924 30.7564C28.9924 30.7564 30.0128 31.5934 27.873 32.2447C23.8062 33.4744 10.9452 33.8434 7.37104 32.2909C6.08854 31.734 8.49604 30.9555 9.25204 30.7969C10.0429 30.6214 10.494 30.6574 10.494 30.6574C9.06416 29.6494 1.26004 32.6317 6.52841 33.4867C20.9014 35.8189 32.724 32.4382 28.9924 30.7564ZM13.9399 19.8169C13.9399 19.8169 7.39579 21.3694 11.619 21.9319C13.4067 22.1715 16.9639 22.1197 20.2804 21.8385C22.986 21.609 25.7063 21.123 25.7063 21.123C25.7063 21.123 24.7512 21.5325 24.0593 22.0084C17.4139 23.7544 4.57766 22.9399 8.27441 21.1534C11.3974 19.647 13.9399 19.8169 13.9399 19.8169ZM25.6759 26.379C32.4259 22.8634 29.3029 19.494 27.1294 19.9519C26.595 20.0565 26.3554 20.1577 26.3554 20.1577C26.3554 20.1577 26.5489 19.8461 26.9303 19.7122C31.2424 18.1946 34.5589 24.1819 25.5409 26.5556C25.5409 26.55 25.6478 26.4622 25.6759 26.3801V26.379ZM21.6034 0C21.6034 0 25.3429 3.73838 18.0529 9.49162C12.2119 14.1086 16.722 16.74 18.0529 19.746C14.643 16.6691 12.141 13.9635 13.8173 11.4435C16.2833 7.73437 23.1098 5.94112 21.6034 0ZM14.6014 35.8886C21.0825 36.2981 31.0365 35.6546 31.2784 32.5901C31.2784 32.5901 30.8205 33.75 25.9155 34.6747C20.385 35.7176 13.5585 35.5939 9.50966 34.9267C9.50966 34.9267 10.3422 35.6119 14.6003 35.8886H14.6014Z" fill="#A3FF2F" style="mix-blend-mode:difference"/>
</svg>
