<svg width="36" height="51" viewBox="0 0 36 51" fill="none" xmlns="http://www.w3.org/2000/svg">
<g clip-path="url(#clip0_128_1101)">
<path d="M17.9782 49.7541L3.79451 45.8449L0.609537 10.3798H35.3905L32.2023 45.8392L17.9782 49.7541Z" stroke="#A3FF2F" style="mix-blend-mode:difference"/>
<path d="M7.54716 26.3359L7.94962 30.7947H18V26.3359H7.54716ZM6.73828 17.3112L7.14652 21.77H18V17.3112H6.73828ZM18 37.9159L17.9803 37.9211L12.9785 36.5802L12.6587 33.0242H8.1503L8.77945 40.0251L17.9793 42.5605L18 42.5549V37.9159Z" fill="#A3FF2F" style="mix-blend-mode:difference"/>
<path d="M8.50562 0H13.945V2.25837H10.7804V4.51673H13.9453V6.77496H8.50562V0ZM15.033 0H20.4725V1.96378H17.3078V2.35651H20.4725V6.87325H15.0331V4.81104H18.1979V4.41831H15.0329V0H15.033ZM21.5605 0H27.0001V1.96378H23.8353V2.35651H27.0001V6.87325H21.5605V4.81104H24.7253V4.41831H21.5607V0H21.5605Z" fill="#A3FF2F" style="mix-blend-mode:difference"/>
<path d="M28.4241 26.3359L29.2348 17.3112H17.9845V21.77H24.3129L23.9043 26.3359H17.9845V30.7947H23.5149L22.9934 36.5774L17.9844 37.9197V42.5584L27.1915 40.0251L27.259 39.2718L28.3145 27.5332L28.4241 26.3359Z" fill="#A3FF2F" style="mix-blend-mode:difference"/>
</g>
<defs>
<clipPath id="clip0_128_1101">
<rect width="36" height="50.4" fill="white"/>
</clipPath>
</defs>
</svg>
