<svg width="36" height="50" viewBox="0 0 36 50" fill="none" xmlns="http://www.w3.org/2000/svg">
<g clip-path="url(#clip0_128_1109)">
<path d="M3.79412 45.4771L0.609868 10.3014H35.39L32.2025 45.4714L17.9781 49.3554L3.79412 45.4771Z" fill="none" style="mix-blend-mode:difference"/>
<path d="M3.79412 45.4771L0.609868 10.3014H35.39L32.2025 45.4714L17.9781 49.3554L3.79412 45.4771Z" stroke="#A3FF2F" style="mix-blend-mode:difference"/>
<path d="M11.6466 21.5972H18V17.1738H6.73834L6.84578 18.3605L7.94969 30.5503H18V26.1269H12.0571L11.6466 21.5972ZM12.6588 32.7621H8.15036L8.77951 39.7075L17.9793 42.2227L18 42.2172V37.615L17.9803 37.6201L12.9786 36.2899L12.6588 32.7621Z" fill="#A3FF2F" style="mix-blend-mode:difference"/>
<path d="M3.40033 0H5.68267V2.22091H7.77053V0H10.053V6.72548H7.77067V4.47341H5.68281V6.72548H3.40047V0H3.40033ZM13.0542 2.23033H11.0453V0H17.3472V2.23033H15.337V6.72548H13.0547V2.23033H13.0545H13.0542ZM18.3474 0H20.7272L22.1911 2.36316L23.6536 0H26.0343V6.72548H23.7613V3.39197L22.1911 5.78324H22.1517L20.5805 3.39197V6.72548H18.3474V0ZM27.1702 0H29.4532V4.50249H32.6628V6.72548H27.17V0H27.1702Z" fill="#A3FF2F" style="mix-blend-mode:difference"/>
<path d="M17.9845 30.5503H23.5149L22.9934 36.2871L17.9844 37.6187V42.2206L27.1915 39.7075L27.259 38.9601L28.3145 27.3147L28.4241 26.1269H17.9845V30.5503ZM17.9845 21.5864V21.5972H28.8328L28.9228 20.6031L29.1275 18.3605L29.2348 17.1738H17.9845V21.5866V21.5864Z" fill="#A3FF2F" style="mix-blend-mode:difference"/>
</g>
<defs>
<clipPath id="clip0_128_1109">
<rect width="36" height="50" fill="white"/>
</clipPath>
</defs>
</svg>
