<svg width="36" height="36" viewBox="0 0 36 36" fill="none" xmlns="http://www.w3.org/2000/svg">
<g clip-path="url(#clip0_149_235)">
<path d="M18 0.439453C19.6523 0.439453 21.2461 0.655669 22.7812 1.0881C24.3164 1.52053 25.7461 2.14516 27.0703 2.96198C28.3945 3.77879 29.6074 4.73975 30.709 5.84486C31.8105 6.94996 32.7539 8.19321 33.5391 9.57459C34.3242 10.956 34.9277 12.4274 35.3496 13.989C35.7715 15.5506 35.9883 17.1842 36 18.8899C36 20.8719 35.707 22.7818 35.1211 24.6196C34.5352 26.4575 33.6973 28.1452 32.6074 29.6827C31.5176 31.2202 30.2227 32.5656 28.7227 33.7187C27.2227 34.8719 25.5469 35.7668 23.6953 36.4034C23.6602 36.4154 23.6074 36.4214 23.5371 36.4214C23.4668 36.4214 23.4141 36.4274 23.3789 36.4395C23.0977 36.4395 22.875 36.3554 22.7109 36.1872C22.5469 36.019 22.4648 35.7968 22.4648 35.5205V32.998C22.4648 32.1692 22.4707 31.3223 22.4824 30.4575C22.4824 29.8449 22.3945 29.2262 22.2188 28.6016C22.043 27.977 21.7266 27.4545 21.2695 27.034C22.6289 26.8779 23.8184 26.5956 24.8379 26.1872C25.8574 25.7788 26.7129 25.2022 27.4043 24.4575C28.0957 23.7127 28.6113 22.8118 28.9512 21.7548C29.291 20.6977 29.4668 19.4244 29.4785 17.9349C29.4785 16.998 29.3262 16.1151 29.0215 15.2863C28.7168 14.4575 28.2539 13.6887 27.6328 12.98C27.7617 12.6437 27.8555 12.2953 27.9141 11.9349C27.9727 11.5746 28.002 11.2142 28.002 10.8539C28.002 10.3854 27.9551 9.92294 27.8613 9.46648C27.7676 9.01002 27.6328 8.55357 27.457 8.09711C27.3984 8.07309 27.334 8.06107 27.2637 8.06107C27.1934 8.06107 27.1289 8.06107 27.0703 8.06107C26.6953 8.06107 26.3027 8.12113 25.8926 8.24126C25.4824 8.36138 25.0781 8.51753 24.6797 8.70972C24.2812 8.90192 23.8887 9.11213 23.502 9.34035C23.1152 9.56858 22.7812 9.7848 22.5 9.989C21.0352 9.56858 19.5352 9.35837 18 9.35837C16.4648 9.35837 14.9648 9.56858 13.5 9.989C13.207 9.7848 12.873 9.56858 12.498 9.34035C12.123 9.11213 11.7363 8.90792 11.3379 8.72774C10.9395 8.54756 10.5293 8.39141 10.1074 8.25927C9.68555 8.12714 9.29297 8.06107 8.92969 8.06107H8.73633C8.66602 8.06107 8.60156 8.07309 8.54297 8.09711C8.37891 8.54156 8.25 8.99201 8.15625 9.44846C8.0625 9.90492 8.00977 10.3734 7.99805 10.8539C7.99805 11.2142 8.02734 11.5746 8.08594 11.9349C8.14453 12.2953 8.23828 12.6437 8.36719 12.98C7.74609 13.6767 7.2832 14.4395 6.97852 15.2683C6.67383 16.0971 6.52148 16.986 6.52148 17.9349C6.52148 19.4004 6.69141 20.6677 7.03125 21.7368C7.37109 22.8058 7.88672 23.7067 8.57812 24.4395C9.26953 25.1722 10.125 25.7548 11.1445 26.1872C12.1641 26.6196 13.3535 26.9079 14.7129 27.0521C14.373 27.3644 14.1152 27.7368 13.9395 28.1692C13.7637 28.6016 13.6406 29.0521 13.5703 29.5205C13.2539 29.6767 12.9199 29.7968 12.5684 29.8809C12.2168 29.965 11.8652 30.007 11.5137 30.007C10.7637 30.007 10.1426 29.8268 9.65039 29.4665C9.1582 29.1061 8.71875 28.6136 8.33203 27.989C8.19141 27.7608 8.02148 27.5325 7.82227 27.3043C7.62305 27.0761 7.40625 26.8719 7.17188 26.6917C6.9375 26.5115 6.68555 26.3674 6.41602 26.2593C6.14648 26.1512 5.86523 26.0911 5.57227 26.0791H5.36133C5.26758 26.0791 5.17969 26.0971 5.09766 26.1331C5.01562 26.1692 4.93359 26.2052 4.85156 26.2413C4.76953 26.2773 4.73438 26.3374 4.74609 26.4214C4.74609 26.5656 4.82812 26.7037 4.99219 26.8358C5.15625 26.968 5.29102 27.0761 5.39648 27.1602L5.44922 27.1962C5.70703 27.4004 5.92969 27.5926 6.11719 27.7728C6.30469 27.953 6.48047 28.1512 6.64453 28.3674C6.80859 28.5836 6.94336 28.8118 7.04883 29.0521C7.1543 29.2923 7.28906 29.5746 7.45312 29.8989C7.85156 30.8358 8.4082 31.5145 9.12305 31.9349C9.83789 32.3554 10.6992 32.5716 11.707 32.5836C12.0117 32.5836 12.3164 32.5656 12.6211 32.5295C12.9258 32.4935 13.2305 32.4395 13.5352 32.3674V35.5025C13.5352 35.7908 13.4531 36.019 13.2891 36.1872C13.125 36.3554 12.8965 36.4395 12.6035 36.4395H12.4629C12.4043 36.4395 12.3516 36.4274 12.3047 36.4034C10.4648 35.7908 8.78906 34.9079 7.27734 33.7548C5.76562 32.6016 4.4707 31.2503 3.39258 29.7007C2.31445 28.1512 1.48242 26.4575 0.896484 24.6196C0.310547 22.7818 0.0117188 20.8719 0 18.8899C0 17.1962 0.210938 15.5626 0.632812 13.989C1.05469 12.4154 1.66406 10.95 2.46094 9.59261C3.25781 8.23525 4.19531 6.99201 5.27344 5.86288C6.35156 4.73375 7.56445 3.76678 8.91211 2.96198C10.2598 2.15717 11.6953 1.53855 13.2188 1.10612C14.7422 0.673687 16.3359 0.451465 18 0.439453Z" fill="#A3FF2F" style="mix-blend-mode:difference"/>
</g>
<defs>
<clipPath id="clip0_149_235">
<rect width="36" height="36" fill="white"/>
</clipPath>
</defs>
</svg>
