<svg width="36" height="28" viewBox="0 0 36 28" fill="none" xmlns="http://www.w3.org/2000/svg">
<path d="M24.235 24.455L24.865 28.115C24.475 28.325 23.845 28.52 23.005 28.7C22.15 28.895 21.145 29 19.99 29C16.675 28.94 14.185 27.95 12.52 26.06C10.81 24.155 10 21.74 10 18.815C10.06 15.35 11.08 12.695 13.06 10.835C14.98 8.96 17.44 8 20.41 8C21.535 8 22.51 8.105 23.32 8.285C24.13 8.465 24.73 8.66 25.12 8.885L24.22 12.62L22.66 12.11C22.06 11.96 21.355 11.885 20.56 11.885C18.835 11.87 17.395 12.425 16.27 13.535C15.13 14.63 14.56 16.31 14.5 18.545C14.515 20.585 15.055 22.175 16.12 23.345C17.185 24.5 18.67 25.1 20.605 25.115L22.6 24.935C23.245 24.815 23.785 24.65 24.235 24.455V24.455Z" fill="#A3FF2F" style="mix-blend-mode:difference"/>
</svg>
