<svg width="36" height="36" viewBox="0 0 36 36" fill="none" xmlns="http://www.w3.org/2000/svg">
<path d="M18 2.40002V22.8M18 22.8V27.6C18 28.5494 17.7185 29.4774 17.1911 30.2668C16.6636 31.0561 15.914 31.6713 15.0369 32.0346C14.1598 32.3979 13.1947 32.493 12.2636 32.3078C11.3325 32.1226 10.4772 31.6654 9.80591 30.9941C9.13462 30.3228 8.67747 29.4676 8.49226 28.5365C8.30705 27.6053 8.4021 26.6402 8.7654 25.7631C9.12871 24.8861 9.74393 24.1364 10.5333 23.609C11.3226 23.0815 12.2507 22.8 13.2 22.8M18 22.8H13.2M13.2 22.8C11.927 22.8 10.7061 22.2943 9.80591 21.3941C8.90574 20.494 8.40003 19.2731 8.40003 18C8.40003 16.727 8.90574 15.5061 9.80591 14.6059C10.7061 13.7057 11.927 13.2 13.2 13.2M13.2 13.2H18M13.2 13.2H22.8M13.2 13.2C11.927 13.2 10.7061 12.6943 9.80591 11.7941C8.90574 10.894 8.40003 9.67306 8.40003 8.40002C8.40003 7.12698 8.90574 5.90609 9.80591 5.00591C10.7061 4.10574 11.927 3.60002 13.2 3.60002H22.8C24.0731 3.60002 25.294 4.10574 26.1941 5.00591C27.0943 5.90609 27.6 7.12698 27.6 8.40002C27.6 9.67306 27.0943 10.894 26.1941 11.7941C25.294 12.6943 24.0731 13.2 22.8 13.2M22.8 13.2C24.0731 13.2 25.294 13.7057 26.1941 14.6059C27.0943 15.5061 27.6 16.727 27.6 18C27.6 19.2731 27.0943 20.494 26.1941 21.3941C25.294 22.2943 24.0731 22.8 22.8 22.8C21.527 22.8 20.3061 22.2943 19.4059 21.3941C18.5057 20.494 18 19.2731 18 18C18 16.727 18.5057 15.5061 19.4059 14.6059C20.3061 13.7057 21.527 13.2 22.8 13.2Z" stroke="#A3FF2F" stroke-width="3" style="mix-blend-mode:difference"/>
</svg>
