<svg width="91" height="94" viewBox="0 0 91 94" fill="none" xmlns="http://www.w3.org/2000/svg">
<path d="M45.5598 0.922852C49.7205 0.922852 53.7336 1.47939 57.5992 2.59247C61.4648 3.70556 65.0648 5.31334 68.3993 7.41583C71.7337 9.51832 74.7878 11.9918 77.5616 14.8364C80.3354 17.6809 82.7108 20.881 84.6879 24.4367C86.6649 27.9924 88.1846 31.78 89.2469 35.7994C90.3092 39.8189 90.8551 44.0239 90.8846 48.4144C90.8846 53.516 90.1469 58.4321 88.6715 63.1627C87.1961 67.8933 85.0862 72.2374 82.342 76.195C79.5977 80.1527 76.337 83.6156 72.56 86.5838C68.7829 89.552 64.5632 91.8555 59.9009 93.4942C59.8124 93.5251 59.6796 93.5406 59.5025 93.5406C59.3255 93.5406 59.1927 93.556 59.1041 93.5869C58.3959 93.5869 57.8353 93.3705 57.4222 92.9377C57.0091 92.5048 56.8025 91.9328 56.8025 91.2216V84.7287C56.8025 82.5953 56.8173 80.4155 56.8468 78.1893C56.8468 76.6124 56.6254 75.0201 56.1828 73.4123C55.7402 71.8045 54.9435 70.4596 53.7926 69.3774C57.2156 68.9755 60.2107 68.2489 62.7779 67.1976C65.3452 66.1464 67.4993 64.6623 69.2403 62.7453C70.9813 60.8283 72.2796 58.5094 73.1354 55.7885C73.9911 53.0677 74.4337 49.7903 74.4632 45.9563C74.4632 43.5446 74.0796 41.2721 73.3124 39.1387C72.5452 37.0053 71.3796 35.0265 69.8157 33.2022C70.1403 32.3365 70.3763 31.4399 70.5239 30.5123C70.6714 29.5847 70.7452 28.6572 70.7452 27.7296C70.7452 26.5237 70.6272 25.3334 70.3911 24.1584C70.155 22.9835 69.8157 21.8086 69.3731 20.6337C69.2255 20.5718 69.0632 20.5409 68.8862 20.5409C68.7091 20.5409 68.5468 20.5409 68.3993 20.5409C67.455 20.5409 66.4665 20.6955 65.4337 21.0047C64.4009 21.3139 63.3829 21.7158 62.3796 22.2105C61.3763 22.7053 60.3878 23.2463 59.414 23.8338C58.4402 24.4213 57.5992 24.9778 56.891 25.5034C53.2025 24.4213 49.4254 23.8802 45.5598 23.8802C41.6942 23.8802 37.9172 24.4213 34.2286 25.5034C33.4909 24.9778 32.6499 24.4213 31.7056 23.8338C30.7614 23.2463 29.7876 22.7207 28.7843 22.2569C27.781 21.7931 26.7482 21.3912 25.6859 21.0511C24.6236 20.711 23.6351 20.5409 22.7204 20.5409H22.2335C22.0564 20.5409 21.8941 20.5718 21.7466 20.6337C21.3335 21.7777 21.0089 22.9371 20.7728 24.1121C20.5367 25.287 20.4039 26.4928 20.3744 27.7296C20.3744 28.6572 20.4482 29.5847 20.5957 30.5123C20.7433 31.4399 20.9794 32.3365 21.3039 33.2022C19.74 34.9955 18.5744 36.9589 17.8072 39.0923C17.04 41.2257 16.6564 43.5137 16.6564 45.9563C16.6564 49.7284 17.0843 52.9904 17.94 55.7422C18.7957 58.4939 20.0941 60.8129 21.8351 62.6989C23.5761 64.585 25.7302 66.0845 28.2974 67.1976C30.8647 68.3107 33.8598 69.0528 37.2827 69.4238C36.427 70.2277 35.7778 71.1862 35.3352 72.2992C34.8925 73.4123 34.5827 74.5718 34.4057 75.7776C33.6089 76.1796 32.7679 76.4888 31.8827 76.7052C30.9974 76.9216 30.1122 77.0298 29.2269 77.0298C27.3384 77.0298 25.7745 76.5661 24.5351 75.6385C23.2958 74.7109 22.1892 73.4432 21.2154 71.8355C20.8613 71.248 20.4335 70.6605 19.9318 70.0731C19.4302 69.4856 18.8843 68.96 18.2941 68.4962C17.7039 68.0324 17.0695 67.6614 16.3908 67.3831C15.7121 67.1049 15.0039 66.9503 14.2662 66.9193H13.7351C13.499 66.9193 13.2777 66.9657 13.0711 67.0585C12.8646 67.1512 12.658 67.244 12.4514 67.3368C12.2449 67.4295 12.1564 67.5841 12.1859 67.8005C12.1859 68.1716 12.3924 68.5271 12.8055 68.8672C13.2187 69.2074 13.558 69.4856 13.8236 69.7021L13.9564 69.7948C14.6056 70.3204 15.1662 70.8151 15.6383 71.2789C16.1105 71.7427 16.5531 72.2529 16.9662 72.8094C17.3793 73.366 17.7187 73.9534 17.9843 74.5718C18.2498 75.1902 18.5892 75.9168 19.0023 76.7516C20.0056 79.1633 21.4072 80.9102 23.2072 81.9923C25.0072 83.0745 27.1761 83.631 29.7138 83.662C30.481 83.662 31.2483 83.6156 32.0155 83.5228C32.7827 83.4301 33.5499 83.2909 34.3171 83.1054V91.1753C34.3171 91.9173 34.1106 92.5048 33.6975 92.9377C33.2843 93.3705 32.7089 93.5869 31.9712 93.5869H31.6171C31.4696 93.5869 31.3368 93.556 31.2188 93.4942C26.5859 91.9173 22.3662 89.6448 18.5597 86.6766C14.7531 83.7083 11.4924 80.23 8.77765 76.2414C6.06289 72.2529 3.96779 67.8933 2.49237 63.1627C1.01696 58.4321 0.264494 53.516 0.234985 48.4144C0.234985 44.0548 0.766136 39.8498 1.82844 35.7994C2.89074 31.749 4.42517 27.9769 6.43174 24.4831C8.43831 20.9892 10.799 17.7891 13.5137 14.8828C16.2285 11.9764 19.2826 9.4874 22.6761 7.41583C26.0695 5.34426 29.6843 3.75194 33.5204 2.63885C37.3565 1.52577 41.3696 0.953771 45.5598 0.922852Z" fill="white" style="mix-blend-mode:difference"/>
</svg>
