<svg width="92" height="94" viewBox="0 0 92 94" fill="none" xmlns="http://www.w3.org/2000/svg">
<path d="M26.644 0.92334H64.7845C79.3142 0.92334 91.1197 12.9697 91.1197 27.7959V66.7148C91.1197 73.8419 88.3451 80.677 83.4063 85.7166C78.4675 90.7562 71.769 93.5874 64.7845 93.5874H26.644C12.1142 93.5874 0.308838 81.5411 0.308838 66.7148V27.7959C0.308838 20.6689 3.08343 13.8337 8.02222 8.79414C12.961 3.75455 19.6595 0.92334 26.644 0.92334ZM25.7359 10.1897C21.4007 10.1897 17.243 11.9471 14.1775 15.0751C11.1121 18.2031 9.38992 22.4456 9.38992 26.8693V67.6415C9.38992 76.8616 16.7002 84.321 25.7359 84.321H65.6926C70.0278 84.321 74.1855 82.5637 77.251 79.4357C80.3164 76.3077 82.0386 72.0652 82.0386 67.6415V26.8693C82.0386 17.6492 74.7283 10.1897 65.6926 10.1897H25.7359ZM69.5521 17.1396C71.0574 17.1396 72.501 17.7497 73.5654 18.8358C74.6298 19.922 75.2278 21.3951 75.2278 22.9311C75.2278 24.4671 74.6298 25.9402 73.5654 27.0263C72.501 28.1124 71.0574 28.7226 69.5521 28.7226C68.0468 28.7226 66.6032 28.1124 65.5388 27.0263C64.4744 25.9402 63.8764 24.4671 63.8764 22.9311C63.8764 21.3951 64.4744 19.922 65.5388 18.8358C66.6032 17.7497 68.0468 17.1396 69.5521 17.1396ZM45.7142 24.0894C51.7354 24.0894 57.5099 26.5301 61.7675 30.8745C66.0251 35.219 68.4169 41.1114 68.4169 47.2554C68.4169 53.3994 66.0251 59.2918 61.7675 63.6362C57.5099 67.9807 51.7354 70.4214 45.7142 70.4214C39.6931 70.4214 33.9186 67.9807 29.661 63.6362C25.4034 59.2918 23.0115 53.3994 23.0115 47.2554C23.0115 41.1114 25.4034 35.219 29.661 30.8745C33.9186 26.5301 39.6931 24.0894 45.7142 24.0894ZM45.7142 33.3558C42.1016 33.3558 38.6369 34.8202 36.0823 37.4269C33.5278 40.0336 32.0926 43.569 32.0926 47.2554C32.0926 50.9418 33.5278 54.4772 36.0823 57.0839C38.6369 59.6906 42.1016 61.155 45.7142 61.155C49.3269 61.155 52.7916 59.6906 55.3462 57.0839C57.9007 54.4772 59.3359 50.9418 59.3359 47.2554C59.3359 43.569 57.9007 40.0336 55.3462 37.4269C52.7916 34.8202 49.3269 33.3558 45.7142 33.3558Z" fill="white" style="mix-blend-mode:difference"/>
</svg>
