<svg width="92" height="94" viewBox="0 0 92 94" fill="none" xmlns="http://www.w3.org/2000/svg">
<path d="M83.8992 0.922852H8.11083C3.96962 0.922852 0.351379 3.96339 0.351379 8.13947V85.6462C0.351379 89.8451 3.96962 93.5868 8.11083 93.5868H83.8769C88.0404 93.5868 91.162 89.8203 91.162 85.6462V8.13947C91.1864 3.96339 88.0404 0.922852 83.8992 0.922852ZM28.5007 78.1628H15.4912V36.888H28.5007V78.1628ZM22.4459 30.6125H22.3527C18.1892 30.6125 15.4932 27.45 15.4932 23.4911C15.4932 19.4598 18.2601 16.3717 22.5169 16.3717C26.7736 16.3717 29.3784 19.437 29.4716 23.4911C29.4696 27.45 26.7736 30.6125 22.4459 30.6125ZM76.0465 78.1628H63.0371V55.5946C63.0371 50.1878 61.1439 46.4937 56.4371 46.4937C52.8412 46.4937 50.7128 48.9757 49.7662 51.3937C49.4114 52.2624 49.3162 53.4455 49.3162 54.6535V78.1628H36.3067V36.888H49.3162V42.632C51.2094 39.881 54.1668 35.9221 61.0486 35.9221C69.5884 35.9221 76.0486 41.666 76.0486 54.0495L76.0465 78.1628Z" fill="white" style="mix-blend-mode:difference"/>
</svg>
