<svg width="30" height="30" viewBox="0 0 30 30" fill="none" xmlns="http://www.w3.org/2000/svg">
<path d="M25.4875 24.2125L20.475 22.5L18.75 27.5L14.9 20L11.25 27.5L9.52501 22.5L4.51251 24.2125L8.16251 16.7125C6.92119 15.1628 6.24644 13.2356 6.25001 11.25C6.25001 8.92936 7.17188 6.70376 8.81283 5.06282C10.4538 3.42187 12.6794 2.5 15 2.5C17.3207 2.5 19.5463 3.42187 21.1872 5.06282C22.8281 6.70376 23.75 8.92936 23.75 11.25C23.75 13.3125 23.0375 15.2125 21.8375 16.7125L25.4875 24.2125ZM8.75001 11.25L12.1125 12.925L11.875 16.675L15 14.6L18.125 16.6625L17.9125 12.925L21.25 11.25L17.9 9.5625L18.125 5.8375L15 7.8875L11.875 5.8125L12.0875 9.575L8.75001 11.25Z" fill="#FBFF2F" style="mix-blend-mode:difference"/>
</svg>
