<svg width="30" height="30" viewBox="0 0 30 30" fill="none" xmlns="http://www.w3.org/2000/svg">
<path d="M25.4874 24.2125L20.475 22.5L18.75 27.5L14.9 20L11.25 27.5L9.52495 22.5L4.51245 24.2125L8.16245 16.7125C6.92113 15.1628 6.24638 13.2356 6.24995 11.25C6.24995 8.92936 7.17182 6.70376 8.81277 5.06282C10.4537 3.42187 12.6793 2.5 15 2.5C17.3206 2.5 19.5462 3.42187 21.1871 5.06282C22.8281 6.70376 23.75 8.92936 23.75 11.25C23.75 13.3125 23.0375 15.2125 21.8375 16.7125L25.4874 24.2125ZM8.74995 11.25L12.1125 12.925L11.875 16.675L15 14.6L18.125 16.6625L17.9125 12.925L21.25 11.25L17.9 9.5625L18.125 5.8375L15 7.8875L11.875 5.8125L12.0875 9.575L8.74995 11.25Z" fill="#E0E0E0" style="mix-blend-mode:difference"/>
</svg>
